<?xml version="1.0" standalone="no"?>
<!DOCTYPE svg PUBLIC "-//W3C//DTD SVG 20010904//EN"
 "http://www.w3.org/TR/2001/REC-SVG-20010904/DTD/svg10.dtd">
<svg version="1.0" xmlns="http://www.w3.org/2000/svg"
 width="300.000000pt" height="300.000000pt" viewBox="0 0 300.000000 300.000000"
 preserveAspectRatio="xMidYMid meet">
<metadata>
Created by potrace 1.14, written by Peter Selinger 2001-2017
</metadata>
<g transform="translate(0.000000,300.000000) scale(0.100000,-0.100000)"
fill="#000000" stroke="none">
<path d="M1311 2251 c-13 -13 -21 -34 -21 -56 0 -31 -5 -38 -35 -52 -26 -12
-35 -23 -36 -42 0 -14 -3 -20 -6 -14 -3 9 -11 8 -31 -5 -108 -69 -196 -183
-233 -301 -24 -74 -32 -242 -17 -339 17 -116 143 -584 158 -590 5 -2 6 -11 3
-21 -9 -35 62 -83 152 -103 22 -5 82 -9 133 -9 62 -1 92 -4 93 -12 1 -7 1 -22
2 -34 0 -13 4 -23 8 -23 5 0 5 -10 0 -22 -4 -13 -6 -28 -4 -35 2 -6 -10 -14
-29 -18 -52 -10 -142 -38 -148 -46 -3 -3 -14 -9 -25 -13 -26 -8 -92 -72 -110
-106 -19 -37 -23 -78 -13 -123 8 -37 7 -39 -46 -88 -53 -48 -94 -117 -103
-171 l-4 -28 93 0 93 1 20 31 c11 17 29 37 41 44 18 13 22 10 49 -31 l28 -45
294 0 c242 0 297 3 309 14 8 8 14 17 14 20 0 5 46 75 55 84 4 4 53 -26 71 -43
6 -6 19 -25 28 -43 l17 -32 94 0 c84 0 94 2 88 17 -5 12 -3 14 8 8 11 -7 12
-6 3 6 -6 8 -17 31 -24 53 -22 68 -117 186 -150 186 -27 0 -38 28 -36 85 2 42
-2 67 -17 94 -43 79 -165 137 -300 144 -37 2 -71 7 -77 13 -5 5 -12 42 -15 82
-5 64 -3 72 12 73 32 1 56 7 196 51 l139 43 -5 65 c-3 36 -17 112 -32 170 -15
58 -28 114 -30 125 -1 11 -5 27 -8 35 -22 54 -49 220 -52 317 -3 103 -1 117
21 162 30 60 69 79 182 87 42 3 80 9 84 13 26 24 -14 211 -59 280 -32 50 -108
92 -198 111 -106 22 -368 12 -445 -17 -32 -12 -60 -11 -60 2 0 49 -84 81 -119
46z"/>
</g>
</svg>
