<?xml version="1.0" standalone="no"?>
<!DOCTYPE svg PUBLIC "-//W3C//DTD SVG 20010904//EN"
 "http://www.w3.org/TR/2001/REC-SVG-20010904/DTD/svg10.dtd">
<svg version="1.0" xmlns="http://www.w3.org/2000/svg"
 width="200.000000pt" height="200.000000pt" viewBox="0 0 200.000000 200.000000"
 preserveAspectRatio="xMidYMid meet">
<metadata>
Created by potrace 1.14, written by Peter Selinger 2001-2017
</metadata>
<g transform="translate(0.000000,200.000000) scale(0.100000,-0.100000)"
fill="#000000" stroke="none">
<path d="M872 1498 c-6 -6 -12 -22 -12 -35 0 -15 -9 -27 -25 -35 -13 -6 -22
-14 -20 -19 3 -4 -3 -10 -14 -14 -33 -10 -126 -108 -148 -156 -45 -95 -50
-235 -13 -369 7 -25 13 -49 15 -55 13 -60 64 -238 77 -268 18 -47 77 -67 205
-71 l47 -1 0 -44 c1 -32 -3 -45 -14 -46 -126 -20 -203 -85 -203 -172 1 -43 -4
-53 -40 -90 -22 -24 -42 -48 -44 -55 -1 -7 -5 -25 -9 -40 l-6 -28 58 0 c54 0
62 3 84 30 14 17 27 30 30 30 3 0 14 -14 23 -30 l18 -30 195 0 c208 0 203 -1
237 53 15 23 21 26 38 16 12 -6 28 -24 37 -40 16 -27 21 -29 80 -29 56 0 62 2
62 20 0 48 -73 150 -117 164 -14 4 -18 16 -18 53 0 103 -74 149 -260 162 -5 1
-11 23 -12 51 l-3 49 73 21 c166 49 171 53 156 119 -4 19 -6 38 -3 42 2 4 0
10 -5 13 -4 3 -12 25 -16 48 -9 49 -9 49 -24 106 -18 66 -23 99 -28 198 -5 90
-4 92 24 123 22 25 39 32 78 37 101 11 98 9 90 62 -17 125 -60 180 -160 207
-78 21 -247 16 -335 -10 -9 -3 -19 4 -25 18 -11 25 -54 34 -73 15z"/>
</g>
</svg>
